<?xml version="1.0" encoding="UTF-8"?>
<svg width="100px" height="100px" viewBox="0 0 100 100" version="1.1" xmlns="http://www.w3.org/2000/svg" xmlns:xlink="http://www.w3.org/1999/xlink">
    <title>map</title>
    <g id="map" stroke="none" stroke-width="1" fill="none" fill-rule="evenodd">
        <path d="M10.0421793,32.2798627 L48.244874,49.6178827 C49.3602812,50.1263771 50.6233158,50.1263771 51.7387229,49.6178827 L89.9414177,32.2798627 C92.6643234,31.0496343 92.6643234,26.9488727 89.9414177,25.7186442 L51.755126,8.3806243 C50.6457973,7.87312523 49.3706058,7.87312523 48.2612771,8.3806243 L10.0421793,25.7186442 C7.31927358,26.9488727 7.31927358,31.0496343 10.0421793,32.2798627 Z" id="Path" fill="#00D7BB" fill-rule="nonzero"></path>
        <path d="M89.9578207,46.7637526 L80.4276508,42.4497514 L53.9203281,54.4731844 C52.6736965,55.0308879 51.3614528,55.3261428 50,55.3261428 C48.6385472,55.3261428 47.3263035,55.047291 46.0796719,54.4731844 L19.5723492,42.4497514 L10.0421793,46.7637526 C7.31927358,47.9939811 7.31927358,52.0947426 10.0421793,53.3249711 L48.244874,70.646588 C49.3602812,71.1550824 50.6233158,71.1550824 51.7387229,70.646588 L89.9578207,53.3249711 C92.6807264,52.0947426 92.6807264,47.9939811 89.9578207,46.7637526 Z" id="Path" fill="#00607D" fill-rule="nonzero"></path>
        <path d="M89.9578207,67.7268457 L80.4604569,63.4292476 L53.903925,75.4690836 C52.6572935,76.0267872 51.3450498,76.322042 49.983597,76.322042 C48.6221441,76.322042 47.3099004,76.0431902 46.0632689,75.4690836 L19.5395431,63.4292476 L10.0421793,67.7268457 C7.31927358,68.9570742 7.31927358,73.0578358 10.0421793,74.2880643 L48.244874,91.6096811 C49.3602812,92.1181756 50.6233158,92.1181756 51.7387229,91.6096811 L89.9578207,74.2880643 C92.6807264,73.0578358 92.6807264,68.9570742 89.9578207,67.7268457 Z" id="Path" fill="#A34C87" fill-rule="nonzero"></path>
    </g>
</svg>