<svg width="97" height="96" viewBox="0 0 97 96" fill="none" xmlns="http://www.w3.org/2000/svg">
<g clip-path="url(#clip0)">
<path d="M20.5 44C25.8024 44.0064 30.8858 46.1155 34.6351 49.8649C38.3845 53.6142 40.4936 58.6976 40.5 64C40.5 76.684 22.672 94.656 21.916 95.416C21.7302 95.6023 21.5095 95.75 21.2665 95.8509C21.0236 95.9517 20.7631 96.0036 20.5 96.0036C20.2369 96.0036 19.9764 95.9517 19.7335 95.8509C19.4905 95.75 19.2698 95.6023 19.084 95.416C18.328 94.656 0.5 76.684 0.5 64C0.506351 58.6976 2.61552 53.6142 6.36488 49.8649C10.1142 46.1155 15.1976 44.0064 20.5 44ZM20.5 71C21.8845 71 23.2378 70.5895 24.389 69.8203C25.5401 69.0511 26.4373 67.9579 26.9672 66.6788C27.497 65.3997 27.6356 63.9922 27.3655 62.6344C27.0954 61.2765 26.4287 60.0292 25.4497 59.0503C24.4708 58.0713 23.2235 57.4046 21.8656 57.1345C20.5078 56.8644 19.1003 57.003 17.8212 57.5328C16.5421 58.0627 15.4489 58.9599 14.6797 60.111C13.9105 61.2622 13.5 62.6155 13.5 64C13.5021 65.8559 14.2403 67.6351 15.5526 68.9474C16.8649 70.2597 18.6441 70.9979 20.5 71Z" fill="white"/>
<path d="M40.5 35.9996C40.5 37.0605 40.0786 38.0779 39.3284 38.828C38.5783 39.5782 37.5609 39.9996 36.5 39.9996C35.4391 39.9996 34.4217 39.5782 33.6716 38.828C32.9214 38.0779 32.5 37.0605 32.5 35.9996V13.2556C32.4973 13.0732 32.4449 12.8951 32.3483 12.7404C32.2516 12.5857 32.1145 12.4604 31.9518 12.378C31.7891 12.2956 31.607 12.2593 31.4251 12.2729C31.2432 12.2866 31.0686 12.3498 30.92 12.4556L13.32 25.0156C13.0658 25.2014 12.859 25.4446 12.7165 25.7254C12.574 26.0062 12.4998 26.3167 12.5 26.6316V35.9996C12.5 37.0605 12.0786 38.0779 11.3284 38.828C10.5783 39.5782 9.56087 39.9996 8.5 39.9996C7.43913 39.9996 6.42171 39.5782 5.67157 38.828C4.92142 38.0779 4.5 37.0605 4.5 35.9996V24.5716C4.50164 23.6167 4.73026 22.6758 5.16702 21.8267C5.60378 20.9775 6.23616 20.2443 7.012 19.6876L33.008 1.11959C34.0261 0.391565 35.2464 0.000152588 36.498 0.000152588C37.7496 0.000152588 38.9699 0.391565 39.988 1.11959L63.188 17.6956C63.5389 17.9489 63.9626 18.0816 64.3953 18.0737C64.8281 18.0657 65.2466 17.9176 65.588 17.6516L86.792 1.28359C87.677 0.587875 88.74 0.155184 89.8593 0.0349671C90.9786 -0.0852502 92.1091 0.111856 93.1217 0.603758C94.1343 1.09566 94.9881 1.86252 95.5855 2.81668C96.1829 3.77085 96.4998 4.87384 96.5 5.99959V65.5436C96.4975 66.4746 96.2796 67.3924 95.8632 68.2252C95.4468 69.0579 94.8433 69.783 94.1 70.3436L68.072 89.8676C67.0526 90.6311 65.8166 91.0503 64.5431 91.0647C63.2695 91.0791 62.0244 90.6879 60.988 89.9476L43.488 77.4436C42.655 76.8158 42.1001 75.8874 41.9418 74.8564C41.7834 73.8253 42.0341 72.7733 42.6404 71.9244C43.2466 71.0755 44.1605 70.4971 45.1871 70.3124C46.2137 70.1277 47.2719 70.3513 48.136 70.9356L58.9 78.6436C59.0489 78.7479 59.2233 78.8099 59.4047 78.8229C59.5861 78.8358 59.7676 78.7993 59.9298 78.7171C60.092 78.635 60.2289 78.5104 60.3258 78.3565C60.4227 78.2027 60.476 78.0254 60.48 77.8436V26.6276C60.4803 26.3093 60.4045 25.9955 60.2591 25.7124C60.1137 25.4292 59.9028 25.1848 59.644 24.9996L42.044 12.4436C41.8954 12.3378 41.7208 12.2746 41.5389 12.2609C41.357 12.2473 41.1749 12.2836 41.0122 12.366C40.8495 12.4484 40.7124 12.5737 40.6157 12.7284C40.5191 12.8831 40.4667 13.0612 40.464 13.2436L40.5 35.9996ZM68.5 77.5436C68.5 77.7293 68.5517 77.9113 68.6493 78.0693C68.747 78.2273 68.8867 78.355 69.0528 78.438C69.2189 78.5211 69.4048 78.5562 69.5898 78.5396C69.7748 78.5229 69.9514 78.455 70.1 78.3436L87.7 65.1436C87.9484 64.9573 88.15 64.7157 88.2889 64.438C88.4277 64.1603 88.5 63.8541 88.5 63.5436V12.1076C88.5 11.9219 88.4483 11.7398 88.3507 11.5819C88.253 11.4239 88.1133 11.2962 87.9472 11.2132C87.7811 11.1301 87.5952 11.095 87.4102 11.1116C87.2252 11.1283 87.0486 11.1962 86.9 11.3076L69.3 24.9076C69.0516 25.0939 68.85 25.3355 68.7111 25.6132C68.5723 25.8909 68.5 26.1971 68.5 26.5076V77.5436Z" fill="white"/>
</g>
<defs>
<clipPath id="clip0">
<rect width="96" height="96" fill="white" transform="matrix(-1 0 0 1 96.5 0)"/>
</clipPath>
</defs>
</svg>
